<svg width="512" height="512" viewBox="0 0 512 512" fill="none" xmlns="http://www.w3.org/2000/svg">
<rect width="512" height="512" rx="256" fill="#040F0F"/>
<path d="M399 193.67L398.624 193.423L300.991 243.502L299.722 267.955L343.596 245.471L342.305 270.577L318.686 282.68L399 335.294V309.621L362.936 286.007L365.595 234.198L398.657 217.216L399 210.555V193.67Z" fill="white"/>
<path d="M244.888 104.302L223.312 115.816L222.793 146.604L177.807 171.723L150.057 154.906L128.354 166.487L219.942 221.984L241.205 210.15L198.968 184.534L220.781 172.354L243.523 186.174L244.888 104.302Z" fill="white"/>
<path d="M113 323.372L189.316 275.336L165.903 262.766L164.99 237.663L208.508 260.965L207.626 236.5L113 185.732V209.75L143.2 225.949L145.048 277.81L113 297.965V323.372Z" fill="white"/>
<path d="M265.57 185.973L264.018 98L285.612 110.013L286.261 146.44L331.29 171.642L362.447 152.756L383.113 164.252L383.13 165.018L289.198 221.865L267.948 209.978L310.141 184.43L288.33 172.217L265.57 185.973Z" fill="white"/>
<path d="M123.982 339.009L145.43 351.437L177.936 332.532L222.527 358.499L222.542 395.942L242.327 407.464L243.583 406.732L243.53 296.262L222.457 283.99L222.488 333.639L200.886 321.059L200.873 294.307L123.982 339.009Z" fill="white"/>
<path d="M275.509 407.542L283.887 402.687L284.502 365.406L329.521 340.306L359.834 358.681L381.015 346.409L307.166 301.652L306.702 328.392L284.908 340.538L285.747 290.908L264.497 302.795L262.64 413.217L263.909 414L275.509 407.542Z" fill="white"/>
</svg>
