<svg width="512" height="512" viewBox="0 0 512 512" fill="none" xmlns="http://www.w3.org/2000/svg">
<rect width="512" height="512" rx="64" fill="#040F0F"/>
<path d="M463 166.055L462.455 165.699L321.127 237.965L319.289 273.252L382.8 240.806L380.931 277.035L346.741 294.501L463 370.424V333.377L410.796 299.301L414.644 224.539L462.504 200.033L463 190.422V166.055Z" fill="white"/>
<path d="M239.914 37.0946L208.682 53.7088L207.932 98.1371L142.812 134.385L102.642 110.117L71.2252 126.83L203.805 206.914L234.584 189.837L173.444 152.871L205.019 135.296L237.939 155.239L239.914 37.0946Z" fill="white"/>
<path d="M49 353.22L159.471 283.902L125.58 265.763L124.258 229.538L187.253 263.164L185.976 227.861L49 154.6V189.26L92.7167 212.636L95.3918 287.472L49 316.557V353.22Z" fill="white"/>
<path d="M269.853 154.949L267.606 28L298.865 45.3351L299.804 97.9012L364.986 134.269L410.087 107.015L440.003 123.605L440.027 124.71L304.056 206.742L273.296 189.589L334.372 152.722L302.799 135.097L269.853 154.949Z" fill="white"/>
<path d="M64.8972 375.785L95.9445 393.719L142.998 366.439L207.546 403.911L207.568 457.942L236.208 474.568L238.026 473.511L237.949 314.1L207.445 296.391L207.489 368.036L176.22 349.883L176.201 311.279L64.8972 375.785Z" fill="white"/>
<path d="M284.24 474.68L296.367 467.675L297.258 413.877L362.426 377.657L406.306 404.173L436.965 386.464L330.066 321.878L329.393 360.465L297.845 377.992L299.06 306.374L268.3 323.527L265.612 482.869L267.449 484L284.24 474.68Z" fill="white"/>
</svg>
