<svg width="47" height="52" viewBox="0 0 47 52" fill="none" xmlns="http://www.w3.org/2000/svg">
<path d="M47 15.7431L46.9382 15.7025L30.8936 23.9434L30.685 27.9673L37.8952 24.2674L37.683 28.3988L33.8016 30.3904L47 39.0484V34.8236L41.0735 30.9378L41.5104 22.4124L46.9437 19.6178L47 18.5218V15.7431Z" fill="#53DD6C"/>
<path d="M21.6739 1.03711L18.1282 2.93171L18.043 7.99809L10.6501 12.1316L6.08983 9.36424L2.52316 11.27L17.5744 20.4025L21.0687 18.4551L14.1277 14.2397L17.7123 12.2355L21.4496 14.5097L21.6739 1.03711Z" fill="#53DD6C"/>
<path d="M0 37.0865L12.5414 29.1818L8.69382 27.1133L8.54379 22.9824L15.6953 26.817L15.5504 22.7912L0 14.4368V18.3893L4.963 21.055L5.2667 29.5889L0 32.9056V37.0865Z" fill="#53DD6C"/>
<path d="M25.0727 14.4766L24.8176 0L28.3663 1.97681L28.473 7.97119L35.8728 12.1184L40.993 9.01045L44.3892 10.9023L44.3919 11.0283L28.9556 20.3829L25.4635 18.4268L32.3973 14.2227L28.813 12.2129L25.0727 14.4766Z" fill="#53DD6C"/>
<path d="M1.80475 39.6597L5.32945 41.7048L10.6713 38.5939L17.9992 42.867L18.0017 49.0285L21.2531 50.9244L21.4595 50.8039L21.4508 32.6254L17.9877 30.606L17.9928 38.7761L14.4428 36.706L14.4407 32.3037L1.80475 39.6597Z" fill="#53DD6C"/>
<path d="M26.706 50.9372L28.0828 50.1384L28.1839 44.0035L35.5821 39.8732L40.5637 42.8969L44.0444 40.8775L31.9084 33.5124L31.8321 37.9127L28.2505 39.9114L28.3884 31.7444L24.8964 33.7005L24.5912 51.8711L24.7998 52L26.706 50.9372Z" fill="#53DD6C"/>
</svg>
